<svg id="Layer_1" data-name="Layer 1" xmlns="http://www.w3.org/2000/svg" viewBox="0 0 62 46"><defs><style>.cls-1{fill:none;stroke:#fff;stroke-miterlimit:10;}.cls-2{fill:#fff;}</style></defs><title>dplogo</title><path class="cls-1" d="M72.25,91.07s.39-9.3,9.38-9,8.88,9,8.88,9V72" transform="translate(-69 -71)"/><path class="cls-1" d="M90.5,92.5s-.21,8.76-9.19,8.5-9.06-8.5-9.06-8.5l.25,20.22" transform="translate(-69 -71)"/><path class="cls-2" d="M99.18,84.44v6.38h-.81v-1.1a3.52,3.52,0,0,1-1.16.94A3.23,3.23,0,0,1,93.5,90a3.29,3.29,0,0,1-1-2.39,3.23,3.23,0,0,1,1-2.36,3.15,3.15,0,0,1,2.33-1,3,3,0,0,1,1.42.33,3.23,3.23,0,0,1,1.12,1V84.44Zm-3.28.63a2.47,2.47,0,0,0-2.19,1.28,2.58,2.58,0,0,0,0,2.58,2.52,2.52,0,0,0,.93,1,2.43,2.43,0,0,0,1.25.34,2.56,2.56,0,0,0,1.28-.34A2.38,2.38,0,0,0,98.1,89a2.62,2.62,0,0,0,.32-1.31,2.54,2.54,0,0,0-.73-1.85A2.42,2.42,0,0,0,95.9,85.07Z" transform="translate(-69 -71)"/><path class="cls-2" d="M100.43,84.44h.87l2.14,4.65,2.11-4.65h.88l-2.92,6.38h-.15Z" transform="translate(-69 -71)"/><path class="cls-2" d="M108,81.81a.68.68,0,0,1,0,1.35.68.68,0,0,1-.67-.67.66.66,0,0,1,.2-.48A.64.64,0,0,1,108,81.81Zm-.41,2.63h.82v6.38h-.82Z" transform="translate(-69 -71)"/><path class="cls-2" d="M116.44,82v8.84h-.81v-1.1a3.52,3.52,0,0,1-1.16.94,3.23,3.23,0,0,1-3.71-.67,3.29,3.29,0,0,1-1-2.39,3.23,3.23,0,0,1,1-2.36,3.15,3.15,0,0,1,2.33-1,3,3,0,0,1,1.42.33,3.23,3.23,0,0,1,1.12,1V82Zm-3.28,3.09A2.47,2.47,0,0,0,111,86.35a2.58,2.58,0,0,0,0,2.58,2.52,2.52,0,0,0,.93,1,2.43,2.43,0,0,0,1.25.34,2.56,2.56,0,0,0,1.28-.34,2.38,2.38,0,0,0,.93-.92,2.62,2.62,0,0,0,.32-1.31,2.54,2.54,0,0,0-.73-1.85A2.42,2.42,0,0,0,113.17,85.07Z" transform="translate(-69 -71)"/><path class="cls-2" d="M92.71,92.5h.82v8.84h-.82Z" transform="translate(-69 -71)"/><path class="cls-2" d="M101.59,95v6.37h-.81v-1.1a3.52,3.52,0,0,1-1.16.94,3.23,3.23,0,0,1-3.71-.67,3.29,3.29,0,0,1-1-2.39,3.23,3.23,0,0,1,1-2.36,3.15,3.15,0,0,1,2.33-1,3,3,0,0,1,1.42.33,3.23,3.23,0,0,1,1.12,1V95Zm-3.28.63a2.47,2.47,0,0,0-2.19,1.28,2.58,2.58,0,0,0,0,2.58,2.52,2.52,0,0,0,.93,1,2.43,2.43,0,0,0,1.25.34,2.56,2.56,0,0,0,1.28-.34,2.38,2.38,0,0,0,.93-.92,2.62,2.62,0,0,0,.32-1.31,2.54,2.54,0,0,0-.73-1.85A2.42,2.42,0,0,0,98.31,95.59Z" transform="translate(-69 -71)"/><path class="cls-2" d="M106.64,95.66l-.53.54a1.9,1.9,0,0,0-1.29-.64,1,1,0,0,0-.68.26.81.81,0,0,0-.29.62.91.91,0,0,0,.23.59,3.3,3.3,0,0,0,1,.67,3.68,3.68,0,0,1,1.25.91,1.66,1.66,0,0,1,.32,1,1.8,1.8,0,0,1-.55,1.33,1.88,1.88,0,0,1-1.38.54,2.41,2.41,0,0,1-1.05-.24,2.29,2.29,0,0,1-.83-.66l.52-.59a1.79,1.79,0,0,0,1.33.71,1.2,1.2,0,0,0,.84-.32,1,1,0,0,0,.35-.74,1,1,0,0,0-.23-.63,3.68,3.68,0,0,0-1-.68,3.31,3.31,0,0,1-1.17-.88,1.65,1.65,0,0,1-.31-1,1.61,1.61,0,0,1,.5-1.21,1.73,1.73,0,0,1,1.25-.48A2.6,2.6,0,0,1,106.64,95.66Z" transform="translate(-69 -71)"/><path class="cls-2" d="M108.08,92.5h.82v5l3-2.57h1.2l-3.5,3,3.71,3.33h-1.15l-3.21-2.87v2.87h-.82Z" transform="translate(-69 -71)"/><path class="cls-2" d="M119.48,99.23l.69.36a3.76,3.76,0,0,1-.79,1.08,3.12,3.12,0,0,1-1,.62,3.5,3.5,0,0,1-1.26.21,3,3,0,0,1-2.44-1,3.45,3.45,0,0,1-.88-2.31,3.41,3.41,0,0,1,.74-2.16,3,3,0,0,1,2.53-1.21,3.15,3.15,0,0,1,2.6,1.24,3.45,3.45,0,0,1,.7,2.18h-5.74a2.6,2.6,0,0,0,.71,1.82,2.26,2.26,0,0,0,1.7.71,2.73,2.73,0,0,0,.95-.17,2.49,2.49,0,0,0,.78-.45A3.83,3.83,0,0,0,119.48,99.23Zm0-1.72a2.72,2.72,0,0,0-.48-1,2.27,2.27,0,0,0-.83-.63,2.54,2.54,0,0,0-1.09-.24,2.34,2.34,0,0,0-1.61.6,2.73,2.73,0,0,0-.75,1.32Z" transform="translate(-69 -71)"/><path class="cls-2" d="M122.63,92.6h.82V95h1.3v.71h-1.3v5.67h-.82V95.67h-1.12V95h1.12Z" transform="translate(-69 -71)"/><path class="cls-2" d="M126.69,92.6h.82V95h1.3v.71h-1.3v5.67h-.82V95.67h-1.12V95h1.12Z" transform="translate(-69 -71)"/><polyline class="cls-1" points="10 0.5 0.5 0.5 0.5 45.5 10 45.5"/><polyline class="cls-1" points="53 0.5 61.5 0.5 61.5 45.5 53 45.5"/></svg>